<svg xmlns="http://www.w3.org/2000/svg">
    <path
        d="M31.4433 0C29.958 0.0022113 28.4746 0.106426 27.0039 0.31189L0.317919 26.6524C0.107045 28.1031 0.00080448 29.5667 0 31.0321C0 31.2312 0.00652075 31.4284 0.0130655 31.6264C0.015905 31.7123 0.0187489 31.7983 0.0210669 31.8846L32.3071 0.0207927C32.2211 0.0185318 32.1352 0.0157638 32.0493 0.0129942L32.0493 0.0129939C31.8478 0.00650144 31.646 0 31.4433 0ZM2.05117 20.0006L20.2645 2.02437C16.1179 3.587 12.3522 5.99592 9.21364 9.09361C6.0751 12.1913 3.6344 15.908 2.05117 20.0006ZM36.8594 0.468635C38.2241 0.699322 39.5716 1.02012 40.8928 1.42888L1.44407 40.3641C1.03013 39.0601 0.705103 37.7302 0.47116 36.3833L36.8594 0.468635ZM47.7797 4.51364C46.7231 3.88312 45.6295 3.31505 44.5047 2.81242L2.84398 43.9252C3.35244 45.0352 3.92803 46.1139 4.56764 47.1557L47.7797 4.51364ZM50.7272 6.53822C51.6644 7.25426 52.5596 8.02231 53.4085 8.83865L8.95733 52.7207C8.13007 51.8825 7.35128 50.999 6.62465 50.0743L50.7272 6.53822ZM57.9052 14.2823C57.2577 13.2891 56.5544 12.3324 55.7985 11.4167L11.5581 55.0813C12.4857 55.8284 13.4557 56.5226 14.4634 57.1606L57.9052 14.2823ZM59.7112 17.4412C60.2708 18.576 60.7588 19.7439 61.1725 20.9381L21.2163 60.3762C20.0061 59.9667 18.8223 59.4851 17.6713 58.9339L59.7112 17.4412ZM62.8177 29.1929C62.7324 27.7219 62.5404 26.2589 62.2431 24.8151L25.1443 61.4329C26.606 61.726 28.087 61.9156 29.576 62L62.8177 29.1929ZM62.7162 34.2379C62.4947 36.3599 62.0512 38.4535 61.3928 40.4852L41.0211 60.5917C38.9628 61.2423 36.8415 61.68 34.6915 61.8979L62.7162 34.2379Z" />
</svg>