<svg width="32" height="32" viewBox="0 0 32 32" xmlns="http://www.w3.org/2000/svg">
    <path fill-rule="evenodd" clip-rule="evenodd"
        d="M17.2431 0C16.4286 0.00121265 15.6151 0.0583629 14.8086 0.171037L0.174343 14.6159C0.0587019 15.4114 0.000441167 16.214 0 17.0176C0 17.1268 0.00357588 17.2349 0.00716493 17.3435L0.00716527 17.3435C0.00872229 17.3906 0.0102818 17.4378 0.0115528 17.4851L17.7168 0.0114024C17.6697 0.0101627 17.6226 0.00864485 17.5754 0.00712612L17.5754 0.00712583L17.5754 0.00712568C17.4649 0.0035653 17.3543 0 17.2431 0ZM1.12484 10.968L11.1128 1.11012C8.83884 1.96704 6.77378 3.28807 5.05265 4.9868C3.33151 6.68553 1.99307 8.72371 1.12484 10.968ZM20.2133 0.256942C20.9616 0.383447 21.7006 0.559371 22.4251 0.783527L0.791921 22.1351C0.564924 21.42 0.386682 20.6907 0.258391 19.9521L20.2133 0.256942ZM26.2018 2.47519C25.6223 2.12942 25.0226 1.8179 24.4058 1.54226L1.5596 24.088C1.83843 24.6967 2.15407 25.2882 2.50483 25.8595L26.2018 2.47519ZM27.8182 3.58543C28.3321 3.9781 28.823 4.39928 29.2885 4.84695L4.91209 28.9113C4.45843 28.4516 4.03135 27.9671 3.63288 27.4601L27.8182 3.58543ZM31.7545 7.83222C31.3994 7.28753 31.0137 6.76289 30.5992 6.26075L6.33829 30.2059C6.84697 30.6155 7.37892 30.9962 7.93153 31.3461L31.7545 7.83222ZM32.7449 9.5645C33.0517 10.1868 33.3194 10.8273 33.5462 11.4822L11.6347 33.1095C10.9711 32.885 10.3219 32.6208 9.69072 32.3186L32.7449 9.5645ZM34.4484 16.009C34.4016 15.2023 34.2963 14.4 34.1333 13.6082L13.7888 33.689C14.5904 33.8497 15.4025 33.9536 16.2191 33.9999L34.4484 16.009ZM34.3927 18.7756C34.2713 19.9392 34.0281 21.0873 33.667 22.2015L22.4954 33.2277C21.3667 33.5845 20.2034 33.8245 19.0244 33.944L34.3927 18.7756Z"
    />
</svg>